<?xml version="1.0" standalone="no"?>
<!DOCTYPE svg PUBLIC "-//W3C//DTD SVG 1.1//EN" "http://www.w3.org/Graphics/SVG/1.1/DTD/svg11.dtd" >
<svg xmlns="http://www.w3.org/2000/svg">
<metadata>Generated by IcoMoon</metadata>
<defs>
<font id="linksystem" horiz-adv-x="1024">
<font-face units-per-em="1024" ascent="960" descent="-64" />
<missing-glyph horiz-adv-x="1024" />
<glyph unicode="&#x20;" horiz-adv-x="512" d="" />
<glyph unicode="&#xe900;" glyph-name="github" horiz-adv-x="1049" d="M524.979 960c-290.303 0-524.979-234.676-524.979-524.979 0-232.069 150.367-428.501 358.968-498.035 26.075-5.215 35.636 11.299 35.636 25.206 0 12.168-0.869 53.889-0.869 97.347-146.021-31.29-176.442 62.58-176.442 62.58-23.468 60.842-58.234 76.487-58.234 76.487-47.804 32.159 3.477 32.159 3.477 32.159 53.019-3.477 80.833-53.889 80.833-53.889 46.935-79.964 122.553-57.365 152.974-43.459 4.346 33.898 18.253 57.365 33.029 70.403-116.469 12.168-239.022 57.365-239.022 259.013 0 57.365 20.86 104.301 53.889 140.806-5.215 13.038-23.468 66.926 5.215 139.067 0 0 44.328 13.907 144.282-53.889 41.72 11.299 86.917 17.383 131.245 17.383s89.525-6.084 131.245-17.383c99.955 67.795 144.282 53.889 144.282 53.889 28.683-72.141 10.43-126.030 5.215-139.067 33.898-36.505 53.889-83.44 53.889-140.806 0-201.648-122.553-245.975-239.891-259.013 19.122-16.514 35.636-47.804 35.636-97.347 0-70.403-0.869-126.899-0.869-144.282 0-13.907 9.561-30.421 35.636-25.206 208.601 69.534 358.968 265.966 358.968 498.035 0.869 290.303-234.676 524.979-524.11 524.979zM199.040 206.429c-0.869-2.608-5.215-3.477-8.692-1.738s-6.084 5.215-4.346 7.823c0.869 2.608 5.215 3.477 8.692 1.738s5.215-5.215 4.346-7.823zM219.9 182.961c-2.608-2.608-7.823-0.869-10.43 2.608-3.477 3.477-4.346 8.692-1.738 11.299s6.953 0.869 10.43-2.608c3.477-4.346 4.346-9.561 1.738-11.299zM240.76 152.54c-3.477-2.608-8.692 0-11.299 4.346-3.477 4.346-3.477 10.43 0 12.168 3.477 2.608 8.692 0 11.299-4.346 3.477-4.346 3.477-9.561 0-12.168zM269.443 122.988c-2.608-3.477-8.692-2.608-13.907 1.738-4.346 4.346-6.084 10.43-2.608 13.038 2.608 3.477 8.692 2.608 13.907-1.738 4.346-3.477 5.215-9.561 2.608-13.038zM308.556 106.474c-0.869-4.346-6.953-6.084-13.038-4.346s-9.561 6.953-8.692 10.43c0.869 4.346 6.953 6.084 13.038 4.346s9.561-6.084 8.692-10.43zM351.145 102.997c0-4.346-5.215-7.823-11.299-7.823s-11.299 3.477-11.299 7.823 5.215 7.823 11.299 7.823c6.084 0 11.299-3.477 11.299-7.823zM391.127 109.951c0.869-4.346-3.477-8.692-9.561-9.561s-11.299 1.738-12.168 6.084c-0.869 4.346 3.477 8.692 9.561 9.561s11.299-1.738 12.168-6.084z" />
<glyph unicode="&#xe901;" glyph-name="qq" d="M512 960c-282.996 0-512-229.004-512-512s229.004-512 512-512 512 229.004 512 512-229.004 512-512 512zM722.385 318.604c-7.447-9.309-26.996 1.862-41.891 32.582-3.724-13.964-13.033-36.305-34.444-64.233 35.375-8.378 44.684-42.822 33.513-61.44-8.378-13.033-26.996-24.204-59.578-24.204-58.647 0-83.782 15.825-95.884 26.996-1.862 2.793-5.585 3.724-10.24 3.724s-7.447-0.931-10.24-3.724c-11.171-11.171-37.236-26.996-95.884-26.996-32.582 0-52.131 11.171-59.578 24.204-12.102 18.618-1.862 53.062 33.513 61.44-20.48 27.927-29.789 50.269-34.444 64.233-13.964-30.72-34.444-42.822-41.891-32.582-5.585 8.378-8.378 26.065-7.447 38.167 3.724 46.545 34.444 85.644 53.062 106.124-2.793 5.585-8.378 40.029 14.895 63.302v1.862c0 92.16 65.164 158.255 148.015 158.255 81.92 0 148.015-66.095 148.015-158.255v-1.862c23.273-23.273 17.687-57.716 14.895-63.302 17.687-20.48 49.338-59.578 53.062-106.124 0.931-12.102-0.931-29.789-7.447-38.167z" />
<glyph unicode="&#xe902;" glyph-name="weibo" d="M448.698 477.789c-96.815-4.655-175.011-56.785-175.011-121.949s78.196-114.502 175.011-109.847 175.011 66.095 175.011 131.258c-0.931 64.233-79.127 105.193-175.011 100.538zM513.862 313.018c-29.789-39.098-88.436-57.716-145.222-26.065-26.996 14.895-26.065 43.753-26.065 43.753s-11.171 92.16 85.644 103.331c97.745 12.102 115.433-81.92 85.644-121.018zM448.698 375.389c-6.516-4.655-7.447-13.033-3.724-18.618 2.793-5.585 11.171-6.516 16.756-1.862s8.378 13.033 4.655 18.618c-2.793 5.585-10.24 6.516-17.687 1.862zM403.084 362.356c-18.618-1.862-30.72-17.687-30.72-33.513 0-14.895 14.895-26.065 32.582-24.204s32.582 15.825 32.582 31.651-13.964 27.927-34.444 26.065zM512 960c-282.996 0-512-229.004-512-512s229.004-512 512-512 512 229.004 512 512-229.004 512-512 512zM709.353 333.498c-40.029-85.644-171.287-127.535-268.102-120.087-92.16 7.447-211.316 38.167-223.418 151.738 0 0-6.516 51.2 42.822 117.295 0 0 70.749 99.607 152.669 128.465 82.851 27.927 92.16-19.549 92.16-48.407-4.655-24.204-12.102-38.167 18.618-28.858 0 0 80.989 38.167 114.502 4.655 26.996-26.996 4.655-65.164 4.655-65.164s-11.171-12.102 12.102-16.756c21.411-3.724 94.022-37.236 53.993-122.88zM629.295 569.949c-8.378 0-15.825 7.447-15.825 15.825 0 9.309 7.447 15.825 15.825 15.825 0 0 99.607 18.618 87.505-89.367v-1.862c-0.931-7.447-7.447-13.964-15.825-13.964-9.309 0-15.825 7.447-15.825 15.825 0 1.862 15.825 73.542-55.855 57.716zM797.789 466.618c-2.793-18.618-12.102-11.171-22.342-11.171-13.033 0-23.273 16.756-23.273 29.789 0 11.171 4.655 22.342 4.655 22.342 0.931 4.655 12.102 34.444-7.447 78.196-35.375 60.509-106.124 60.509-114.502 57.716-8.378-3.724-21.411-5.585-21.411-5.585-13.033 0-23.273 10.24-23.273 23.273 0 11.171 7.447 19.549 16.756 22.342 0 0 0-0.931 0.931-0.931s1.862-0.931 1.862-0.931c10.24 1.862 45.615 4.655 79.127-3.724 62.371-14.895 146.153-83.782 108.916-211.316z" />
<glyph unicode="&#xe903;" glyph-name="wechat" d="M319.302 574.604c0-18.509 15.004-33.513 33.513-33.513s33.513 15.004 33.513 33.513v0c0 18.509-15.004 33.513-33.513 33.513s-33.513-15.004-33.513-33.513v0zM469.178 575.535c0-18.509 15.004-33.513 33.513-33.513s33.513 15.004 33.513 33.513v0c0 18.509-15.004 33.513-33.513 33.513s-33.513-15.004-33.513-33.513v0zM552.96 425.658c0-12.853 10.42-23.273 23.273-23.273s23.273 10.42 23.273 23.273v0c0 12.853-10.42 23.273-23.273 23.273s-23.273-10.42-23.273-23.273v0zM671.185 423.796c0-12.853 10.42-23.273 23.273-23.273s23.273 10.42 23.273 23.273v0c0 12.853-10.42 23.273-23.273 23.273s-23.273-10.42-23.273-23.273v0zM512 960c-282.996 0-512-229.004-512-512s229.004-512 512-512 512 229.004 512 512-229.004 512-512 512zM424.495 329.775c-26.996 0-48.407 5.585-75.404 11.171l-75.404-37.236 21.411 64.233c-53.993 37.236-85.644 85.644-85.644 145.222 0 102.4 96.815 182.458 215.040 182.458 105.193 0 198.284-64.233 216.902-150.807-6.516 0.931-13.964 0.931-20.48 0.931-102.4 0-182.458-76.335-182.458-170.356 0-15.825 2.793-30.72 6.516-44.684-7.447 0-13.964-0.931-20.48-0.931zM739.142 254.371l15.825-53.993-58.647 32.582c-21.411-5.585-42.822-11.171-64.233-11.171-102.4 0-182.458 69.818-182.458 155.462s80.058 155.462 182.458 155.462c96.815 0 182.458-69.818 182.458-155.462 0-47.476-31.651-90.298-75.404-122.88z" />
<glyph unicode="&#xe904;" glyph-name="columns" d="M127.994 82.276h347.406v658.244h-365.691v-639.959q0-7.428 5.428-12.856t12.856-5.428zM914.23 100.561v639.959h-365.691v-658.244h347.406q7.428 0 12.856 5.428t5.428 12.856zM987.368 795.374v-694.813q0-37.712-26.855-64.567t-64.567-26.855h-767.951q-37.712 0-64.567 26.855t-26.855 64.567v694.813q0 37.712 26.855 64.567t64.567 26.855h767.951q37.712 0 64.567-26.855t26.855-64.567z" />
<glyph unicode="&#xe905;" glyph-name="bold" d="M426.857 90.857q42.286-18.286 80-18.286 214.857 0 214.857 191.429 0 65.143-23.429 102.857-15.429 25.143-35.143 42.286t-38.571 26.571-46 14.286-48 6-54 1.143q-41.714 0-57.714-5.714 0-30.286-0.286-90.857t-0.286-90.286q0-4.571-0.571-38.571t-0.286-55.143 2.571-47.714 6.857-38zM418.857 517.143q24-4 62.286-4 46.857 0 81.714 7.429t62.857 25.429 42.571 51.143 14.571 81.143q0 40-16.571 70t-45.143 46.857-61.714 24.857-70.857 8q-28.571 0-74.286-7.429 0-28.571 2.286-86.286t2.286-86.857q0-15.429-0.286-45.714t-0.286-45.143q0-26.286 0.571-39.429zM109.714 9.143l1.143 53.714q8.571 2.286 48.571 9.143t60.571 15.429q4 6.857 7.143 15.429t4.857 19.143 3.143 18.571 1.714 21.429 0.286 19.429v37.429q0 561.143-12.571 585.714-2.286 4.571-12.571 8.286t-25.429 6.286-28.286 4-27.714 2.571-17.429 1.714l-2.286 47.429q56 1.143 194.286 6.571t213.143 5.429q13.143 0 38.857-0.286t38.857-0.286q40 0 78-7.429t73.429-24 61.714-40.571 42.286-59.714 16-78.571q0-29.714-9.429-54.571t-22.286-41.143-36.857-32.857-41.714-25.714-48-22.857q88-20 146.571-76.571t58.571-141.714q0-57.143-20-102.571t-53.429-74.571-78.857-48.857-93.429-27.714-100.571-8q-25.143 0-75.429 1.714t-75.429 1.714q-60.571 0-175.429-6.286t-132-6.857z" />
<glyph unicode="&#xe906;" glyph-name="bookmark" d="M811.447 886.857q13.166 0 25.161-5.12 18.871-7.461 29.989-23.406t11.118-35.401v-736.549q0-19.456-11.118-35.401t-29.989-23.406q-10.825-4.535-25.161-4.535-27.429 0-47.397 18.286l-251.977 242.322-251.977-242.322q-20.553-18.871-47.397-18.871-13.166 0-25.161 5.12-18.871 7.461-29.989 23.406t-11.118 35.401v736.549q0 19.456 11.118 35.401t29.989 23.406q11.995 5.12 25.161 5.12h598.821z" />
<glyph unicode="&#xe907;" glyph-name="code" horiz-adv-x="1046" d="M326.857 160.571l-28.571-28.571q-5.714-5.714-13.143-5.714t-13.143 5.714l-266.286 266.286q-5.714 5.714-5.714 13.143t5.714 13.143l266.286 266.286q5.714 5.714 13.143 5.714t13.143-5.714l28.571-28.571q5.714-5.714 5.714-13.143t-5.714-13.143l-224.571-224.571 224.571-224.571q5.714-5.714 5.714-13.143t-5.714-13.143zM664.571 770.286l-213.143-737.714q-2.286-7.429-8.857-11.143t-13.429-1.429l-35.429 9.714q-7.429 2.286-11.143 8.857t-1.429 14l213.143 737.714q2.286 7.429 8.857 11.143t13.429 1.429l35.429-9.714q7.429-2.286 11.143-8.857t1.429-14zM1040 398.286l-266.286-266.286q-5.714-5.714-13.143-5.714t-13.143 5.714l-28.571 28.571q-5.714 5.714-5.714 13.143t5.714 13.143l224.571 224.571-224.571 224.571q-5.714 5.714-5.714 13.143t5.714 13.143l28.571 28.571q5.714 5.714 13.143 5.714t13.143-5.714l266.286-266.286q5.714-5.714 5.714-13.143t-5.714-13.143z" />
<glyph unicode="&#xe908;" glyph-name="collection" d="M854.016 448v342.016h-214.016v-342.016l105.984 64zM854.016 873.984q34.005 0 59.008-25.003t25.003-59.008v-512q0-34.005-25.003-59.989t-59.008-25.984h-512q-34.005 0-59.989 25.984t-25.984 59.989v512q0 34.005 25.984 59.008t59.989 25.003h512zM169.984 704v-598.016h598.016v-84.011h-598.016q-34.005 0-59.008 25.003t-25.003 59.008v598.016h84.011z" />
<glyph unicode="&#xe909;" glyph-name="italic" d="M219.429 10.286l9.714 48.571q3.429 1.143 46.571 12.286t63.714 21.429q16 20 23.429 57.714 0.571 4 35.429 165.143t65.143 310.571 29.714 169.429v14.286q-13.714 7.429-31.143 10.571t-39.714 4.571-33.143 3.143l10.857 58.857q18.857-1.143 68.571-3.714t85.429-4 68.857-1.429q27.429 0 56.286 1.429t69.143 4 56.286 3.714q-2.857-22.286-10.857-50.857-17.143-5.714-58-16.286t-62-19.143q-4.571-10.857-8-24.286t-5.143-22.857-4.286-26-3.714-24q-15.429-84.571-50-239.714t-44.286-203.143q-1.143-5.143-7.429-33.143t-11.429-51.429-9.143-47.714-3.429-32.857l0.571-10.286q9.714-2.286 105.714-17.714-1.714-25.143-9.143-56.571-6.286 0-18.571-0.857t-18.571-0.857q-16.571 0-49.714 5.714t-49.143 5.714q-78.857 1.143-117.714 1.143-29.143 0-81.714-5.143t-69.143-6.286z" />
<glyph unicode="&#xe90a;" glyph-name="title" d="M278 62.3c0 7-5.6 12.6-12.6 12.6h-140.2c-18.2 0-33 13.7-33 30.6v670c0 16.9 14.8 30.6 33 30.6h487.4c18.2 0 33-13.7 33-30.6v-170.1c0-7.5 6.1-13.6 13.6-13.6s13.6 6.1 13.6 13.6v170.1c0 30.8-27 55.8-60.2 55.8h-487.4c-33.2 0-60.2-25-60.2-55.8v-670c0-30.8 27-55.8 60.2-55.8h140.3c6.9 0 12.5 5.7 12.5 12.6zM362.6 369.7h-199c-0.6 0-1.1 0.5-1.1 1.1v9.5c0 0.6 0.5 1.1 1.1 1.1h199c0.6 0 1.1-0.5 1.1-1.1v-9.5c0-0.6-0.5-1.1-1.1-1.1zM367.8 246h-204.2c-0.6 0-1.1 0.5-1.1 1.1v9.5c0 0.6 0.5 1.1 1.1 1.1h204.2c0.6 0 1.1-0.5 1.1-1.1v-9.5c0-0.6-0.5-1.1-1.1-1.1zM365.2 617.2h-201.6c-0.6 0-1.1 0.5-1.1 1.1v9.5c0 0.6 0.5 1.1 1.1 1.1h201.5c0.6 0 1.1-0.5 1.1-1.1v-9.5c0.1-0.6-0.4-1.1-1-1.1zM574.1 617.2h-126.2c-0.6 0-1.1 0.5-1.1 1.1v9.5c0 0.6 0.5 1.1 1.1 1.1h126.2c0.6 0 1.1-0.5 1.1-1.1v-9.5c0-0.6-0.4-1.1-1.1-1.1zM416.1 617.2h-13.3c-0.6 0-1.1 0.5-1.1 1.1v9.5c0 0.6 0.5 1.1 1.1 1.1h13.3c0.6 0 1.1-0.5 1.1-1.1v-9.5c0-0.6-0.4-1.1-1.1-1.1zM408.4 493.5h-244.8c-0.6 0-1.1 0.5-1.1 1.1v9.4c0 0.6 0.5 1.1 1.1 1.1h244.8c0.6 0 1.1-0.5 1.1-1.1v-9.5c0-0.5-0.5-1-1.1-1zM679.7 895.8h-329.4c-7 0-12.6-5.6-12.6-12.6s5.6-12.6 12.6-12.6h329.4c18.2 0 33-13.7 33-30.6v-179.9c0-7.1 5.1-13.6 12.2-14.3 8.1-0.8 15 5.6 15 13.5v180.7c0 30.7-27 55.8-60.2 55.8zM887.3 398.4h-169.4c-10.4 0-18.8 7.1-18.8 15.8s8.4 15.8 18.8 15.8h169.5c10.4 0 18.8-7.1 18.8-15.8s-8.5-15.8-18.9-15.8zM887.3 338.1h-169.4c-10.4 0-18.8 7.1-18.8 15.8s8.4 15.8 18.8 15.8h169.5c10.4 0 18.8-7.1 18.8-15.8s-8.5-15.8-18.9-15.8zM887.3 124.3h-169.4c-10.4 0-18.8 7.1-18.8 15.8s8.4 15.8 18.8 15.8h169.5c10.4 0 18.8-7.1 18.8-15.8s-8.5-15.8-18.9-15.8zM887.3 64h-169.4c-10.4 0-18.8 7.1-18.8 15.8s8.4 15.8 18.8 15.8h169.5c10.4 0 18.8-7.1 18.8-15.8s-8.5-15.8-18.9-15.8zM586.1 260.6h-113c-31.1 0-56.5 25.3-56.5 56.5v113c0 31.1 25.3 56.5 56.5 56.5h113c31.1 0 56.5-25.3 56.5-56.5v-113c0-31.1-25.4-56.5-56.5-56.5zM463.5 461.7c-12.1 0-22-9.9-22-22v-132.2c0-12.1 9.9-22 22-22h132.2c12.1 0 22 9.9 22 22v132.2c0 12.1-9.9 22-22 22h-132.2zM586.1-3h-113c-31.1 0-56.5 25.3-56.5 56.5v113c0 31.1 25.3 56.5 56.5 56.5h113c31.1 0 56.5-25.3 56.5-56.5v-113c0-31.1-25.4-56.5-56.5-56.5zM463.5 198.1c-12.1 0-22-9.9-22-22v-132.2c0-12.2 9.9-22 22-22h132.2c12.1 0 22 9.9 22 22v132.2c0 12.2-9.9 22-22 22h-132.2z" />
<glyph unicode="&#xe90b;" glyph-name="type" d="M203.629 786.928h273.397v-273.401h-273.397v273.401zM823.632 651.331l-129.652 127.415-127.415-129.646 129.655-127.41 127.41 129.642zM200.368 417.503h273.401v-273.401h-273.401v273.401zM548.629 417.503h273.397v-273.401h-273.397v273.401z" />
<glyph unicode="&#xe90c;" glyph-name="link" d="M256-25.6c-38.4 0-83.2 12.8-121.6 38.4l-6.4 6.4c-96 64-121.6 198.4-51.2 294.4l198.4 268.8c32 44.8 76.8 76.8 134.4 83.2 57.6 12.8 108.8 0 160-32l6.4-6.4c38.4-25.6 70.4-70.4 83.2-115.2 6.4-12.8-6.4-32-19.2-38.4s-32 6.4-38.4 19.2c-12.8 32-32 64-57.6 83.2l-6.4 6.4c-32 25.6-76.8 32-115.2 25.6s-76.8-32-96-64l-198.4-268.8c-44.8-70.4-32-166.4 38.4-211.2l6.4-6.4c70.4-51.2 166.4-32 211.2 38.4l64 89.6c6.4 12.8 25.6 19.2 38.4 6.4 12.8-6.4 19.2-25.6 6.4-38.4l-64-89.6c-38.4-57.6-102.4-89.6-172.8-89.6zM576 230.4c-38.4 0-83.2 12.8-121.6 38.4l-6.4 6.4c-38.4 25.6-70.4 70.4-83.2 115.2-6.4 12.8 6.4 32 19.2 38.4s32-6.4 38.4-19.2c12.8-32 32-64 57.6-83.2l6.4-6.4c70.4-44.8 166.4-32 211.2 38.4l198.4 268.8c44.8 70.4 32 166.4-38.4 211.2l-6.4 6.4c-32 25.6-76.8 32-115.2 25.6s-76.8-32-96-64l-64-89.6c-6.4-12.8-25.6-19.2-38.4-6.4s-19.2 25.6-6.4 38.4l64 89.6c32 44.8 83.2 76.8 134.4 89.6 57.6 12.8 108.8 0 160-32l6.4-6.4c96-64 121.6-198.4 51.2-294.4l-198.4-268.8c-44.8-64-108.8-96-172.8-96zM755.2 492.8h-6.4c-6.4 6.4-6.4 12.8 0 19.2l6.4 12.8c6.4 6.4 12.8 6.4 19.2 0s6.4-12.8 0-19.2l-6.4-12.8h-12.8zM787.2 531.2h-6.4c-6.4 6.4-6.4 12.8 0 19.2l64 83.2c12.8 19.2 19.2 51.2 19.2 76.8-6.4 25.6-19.2 51.2-44.8 64l-6.4 6.4c-6.4 6.4-6.4 12.8-6.4 19.2 6.4 6.4 12.8 6.4 19.2 6.4l6.4-6.4c25.6-19.2 51.2-51.2 51.2-83.2 6.4-32 0-70.4-19.2-96l-64-83.2c-6.4 0-6.4-6.4-12.8-6.4z" />
<glyph unicode="&#xe90d;" glyph-name="question" d="M688.609-48.246h-361.155c-176.248 0-319.637 143.39-319.637 319.653v361.124c0 176.248 143.39 319.653 319.637 319.653h361.155c176.248 0 319.637-143.405 319.637-319.653v-361.124c0-176.263-143.39-319.653-319.637-319.653zM945.157 632.531c0 141.686-114.862 256.548-256.548 256.548h-361.155c-141.686 0-256.548-114.862-256.548-256.548v-361.124c0-141.717 114.862-256.579 256.548-256.579h361.155c141.686 0 256.548 114.862 256.548 256.579v361.124zM690.766 70.711h-365.47c-109.469 0-198.523 89.054-198.523 198.523 0 11.616 9.417 21.032 21.032 21.032s21.032-9.417 21.032-21.032v0c0-86.287 70.186-156.474 156.458-156.474h365.47c86.271 0 156.458 70.186 156.458 156.474v365.47c0 11.616 9.417 21.032 21.032 21.032s21.032-9.417 21.032-21.032v0-365.47c0-109.469-89.054-198.523-198.523-198.523zM547.782 230.014c-0.009-21.954-17.799-39.749-39.75-39.767h-0.002c-21.959 0.009-39.758 17.808-39.767 39.766v0.001c0.018 21.952 17.813 39.743 39.766 39.751h0.001c21.947-0.018 39.734-17.805 39.751-39.75v-0.002zM385.963 531.409c0-11.599-9.41-21.040-21.025-21.040-11.614 0.009-21.025 9.426-21.025 21.040v0c0 90.492 73.625 164.133 164.117 164.133 90.508 0 164.117-73.641 164.117-164.133 0-60.354-38.141-119.426-90.727-140.467-46.145-18.445-52.366-35.984-52.366-50.709 0.010-0.242 0.016-0.526 0.016-0.811 0-11.62-9.42-21.040-21.040-21.040s-21.040 9.42-21.040 21.040c0 0.285 0.006 0.569 0.017 0.851l-0.001-0.041c0 52.226 44.972 76.252 78.8 89.773 36.641 14.647 64.278 58.244 64.278 101.403 0 67.326-54.742 122.068-122.052 122.068s-122.068-54.742-122.068-122.068zM791.372 754.443c-26.996 22.801-62.178 36.671-100.599 36.703h-365.477c-86.271 0-156.458-70.171-156.458-156.442v-202.884c-0.32-11.371-9.614-20.467-21.032-20.467s-20.713 9.096-21.032 20.437l-0.001 0.029v202.884c0 109.453 89.054 198.507 198.523 198.507h365.47c46.629 0 91.961-16.554 127.68-46.598 4.698-3.885 7.668-9.714 7.668-16.237 0-11.612-9.413-21.025-21.025-21.025-5.255 0-10.059 1.928-13.744 5.114l0.027-0.023z" />
<glyph unicode="&#xe90e;" glyph-name="heart" horiz-adv-x="1213" d="M1092.476 373.22c-124.507-178.688-437.654-401.035-450.941-410.416-11.856-8.47-26.644-13.543-42.617-13.543s-30.762 5.073-42.842 13.695l0.225-0.153c-13.251 9.38-326.379 231.727-450.923 410.416-42.848 61.498-96.163 138.071-96.163 247.208 0 182.927 148.833 331.76 331.779 331.76 103.926-0.079 196.664-47.909 257.47-122.734l0.482-0.612c61.304 75.416 154.032 123.239 257.934 123.346h0.018c182.946 0 331.779-148.833 331.779-331.76 0-109.137-53.334-185.71-96.2-247.208zM856.897 878.361c-105.138 0-195.404-62.991-235.579-153.164h-0.313c-3.013-9.511-11.751-16.287-22.075-16.31h-0.003c-10.317 0.038-19.043 6.808-22.015 16.146l-0.045 0.164h-0.111v-0.442c-40.102 90.432-130.478 153.606-235.763 153.606-142.475 0-257.934-115.514-257.934-257.934 0-82.489 39.162-142.18 82.894-204.987 118.573-170.137 432.973-392.355 432.973-392.355s314.419 222.218 432.973 392.355c43.769 62.806 82.931 122.498 82.931 204.987 0 142.42-115.495 257.934-257.934 257.934zM990.011 448.834c-83.871-120.379-271.774-269.728-376.322-348.033-4.065-3.058-9.199-4.898-14.762-4.898s-10.696 1.839-14.825 4.943l0.063-0.046c-104.548 78.324-292.451 227.691-376.285 348.033-43.087 61.774-73.55 110.446-73.55 174.173 0 111.643 90.837 202.48 202.462 202.48 82.134-0.112 152.81-49.051 184.567-119.342l0.516-1.277c0.461-1.032 0.885-1.953 1.364-2.857 1.578-3.157 2.501-6.877 2.501-10.812 0-13.598-11.023-24.621-24.621-24.621-9.219 0-17.255 5.067-21.475 12.569l-0.064 0.124c-0.702 1.287-1.621 3.176-2.483 5.095l-0.263 0.655c-24.435 54.132-77.907 91.143-140.032 91.224h-0.011c-84.497 0-153.238-68.759-153.238-153.238 0-49.611 24.437-88.257 64.723-146.032 78.287-112.362 261.251-257.915 350.65-325.66 89.4 67.727 272.363 213.28 350.687 325.66 40.286 57.775 64.723 96.439 64.723 146.032-0.006 0.201-0.009 0.437-0.009 0.674 0 13.598 11.023 24.621 24.621 24.621s24.621-11.023 24.621-24.621c0-0.237-0.003-0.473-0.010-0.708l0.001 0.035c0-63.709-30.463-112.362-73.55-174.173zM970.623 730.062c-27.678 28.499-66.357 46.184-109.167 46.184-0.132 0-0.264 0-0.396-0.001h0.020c-62.068-0.111-115.481-37.053-139.559-90.131l-0.391-0.964c-0.829-1.843-1.659-3.594-2.562-5.344-4.325-7.479-12.285-12.431-21.402-12.431-13.608 0-24.64 11.032-24.64 24.64 0 3.719 0.824 7.246 2.299 10.407l-0.063-0.151c0.516 0.977 0.977 1.972 1.401 2.967 32.365 71.358 102.931 120.122 184.901 120.25h0.017c54.9 0 106.317-21.673 144.76-61.037 4.331-4.432 7.002-10.501 7.002-17.194 0-13.593-11.019-24.611-24.611-24.611-6.899 0-13.136 2.839-17.604 7.412l-0.005 0.005z" />
<glyph unicode="&#xe90f;" glyph-name="notes" d="M576 384l320 320-128 128-320-320 128-128zM959.999 767.999h64c0 193.984-192 192-192 192v-64l128-128zM895.999 128c0-35.346-28.654-64-64-64v0h-640c-35.346 0-64 28.654-64 64v0 640c0 35.346 28.654 64 64 64v0h384l128 128h-576c-70.692 0-128-57.308-128-128v0-768c0-70.692 57.308-128 128-128v0h768c70.692 0 128 57.308 128 128v0 576l-128-128v-384zM320 448v-192h192v64l-128 128h-64z" />
<glyph unicode="&#xe910;" glyph-name="enjoy" d="M746.602 540.168c-97.743 0-177.263 79.521-177.263 177.263 0 97.755 79.52 177.278 177.263 177.278 97.755 0 177.291-79.521 177.291-177.278 0-97.741-79.535-177.263-177.291-177.263zM746.602 838.17c-66.574 0-120.726-54.165-120.726-120.739s54.151-120.725 120.726-120.725 120.752 54.15 120.752 120.725-54.179 120.739-120.752 120.739zM681.132 747.137c-2.706 0-5.452 0.773-7.867 2.402-6.473 4.348-8.213 13.127-3.865 19.615 17.31 25.784 46.173 41.189 77.202 41.189 7.799 0 14.134-6.322 14.134-14.134s-6.335-14.135-14.134-14.135c-21.589 0-41.673-10.725-53.723-28.683-2.734-4.058-7.193-6.253-11.748-6.253zM266.021 278.684c-109.433 0-198.465 89.034-198.465 198.458 0 109.448 89.032 198.478 198.465 198.478 109.448 0 198.493-89.032 198.493-198.478 0.001-109.424-89.045-198.458-198.493-198.458zM266.021 619.082c-78.266 0-141.926-63.675-141.926-141.941 0-78.258 63.661-141.919 141.926-141.919s141.954 63.661 141.954 141.919c0.001 78.266-63.689 141.941-141.954 141.941zM176.051 463.007c-7.813 0-14.135 6.322-14.135 14.135l-0.069 3.354c-0.111 3.257-0.124 5.522 0.87 10.739 1.463 7.66 8.848 12.658 16.537 11.223 7.675-1.477 12.699-8.875 11.223-16.55-0.442-2.361-0.442-2.471-0.372-4.459 0.042-1.104 0.083-2.444 0.083-4.306-0.002-7.813-6.337-14.136-14.136-14.136zM191.249 513.072c-2.706 0-5.439 0.773-7.868 2.387-6.473 4.348-8.213 13.141-3.865 19.615 19.394 28.919 51.735 46.186 86.506 46.186 7.8 0 14.135-6.322 14.135-14.135s-6.335-14.134-14.135-14.134c-25.329 0-48.892-12.589-63.026-33.652-2.72-4.072-7.192-6.267-11.747-6.267zM732.466 1.292c-122.104 0-221.434 99.328-221.434 221.434s99.329 221.433 221.434 221.433c122.105 0 221.462-99.327 221.462-221.433s-99.357-221.434-221.462-221.434zM732.466 387.622c-90.923 0-164.895-73.959-164.895-164.897s73.973-164.896 164.895-164.896c90.937 0 164.924 73.959 164.924 164.897s-73.987 164.896-164.924 164.896zM633.483 279.541c-2.707 0-5.439 0.772-7.855 2.374-6.488 4.361-8.226 13.139-3.879 19.627 21.631 32.274 57.727 51.571 96.583 51.571 7.799 0 14.134-6.322 14.134-14.134s-6.335-14.136-14.134-14.136c-29.401 0-56.731-14.604-73.089-39.035-2.733-4.086-7.205-6.267-11.76-6.267zM409.121 521.202l-22.334 51.929 233.028 100.185 22.335-51.929zM410.357 395.042l154.87-75.926-24.889-50.767-154.87 75.926 24.889 50.767z" />
<glyph unicode="&#xe911;" glyph-name="qr-code" d="M447.746 895.979h63.961v-63.961h-63.961zM511.706 832.018h63.961v-127.921h-63.961zM447.746 768.057h63.961v-191.882h-63.961zM511.706 640.137h63.961v-63.961h-63.961zM63.981 512.216h383.763v-63.961h-383.763zM127.942 448.255h63.961v-63.961h-63.961zM255.863 448.255h255.843v-63.961h-255.843zM511.706 512.216h63.961v-63.961h-63.961zM447.746 320.333h127.921v-127.921h-127.921zM575.667 448.255h63.961v-191.882h-63.961zM639.628 384.294h191.882v-63.961h-191.882zM703.587 512.216h63.961v-127.921h-63.961zM895.47 512.216h63.961v-127.921h-63.961zM831.509 512.216h127.921v-63.961h-127.921zM703.587 256.373h63.961v-127.921h-63.961zM767.548 192.412h63.961v-127.921h-63.961zM767.548 64.49h127.921v-63.961h-127.921zM895.47 192.412h63.961v-191.882h-63.961zM831.509 320.333h127.921v-63.961h-127.921zM447.746 128.451h191.882v-63.961h-191.882zM447.746 64.49h63.961v-63.961h-63.961zM639.628 64.49h63.961v-63.961h-63.961zM63.981 895.979v-319.803h319.804v319.803h-319.804zM319.824 640.137h-191.882v191.881h191.882v-191.881zM191.903 768.057h63.961v-63.961h-63.961zM63.981 320.333v-319.803h319.804v319.803h-319.804zM319.824 64.49h-191.882v191.882h191.882v-191.882zM191.903 192.412h63.961v-63.961h-63.961zM639.628 895.979v-319.803h319.804v319.803h-319.804zM895.47 640.137h-191.882v191.881h191.882v-191.881zM767.548 768.057h63.961v-63.961h-63.961zM511.706 576.176h63.961v-127.921h-63.961zM575.667 192.412h127.921v-127.921h-127.921z" />
<glyph unicode="&#xe912;" glyph-name="refrush" d="M55.935 695.511c0 0 85.897 132.548 221.814 203.673 135.916 71.122 303.369 50.647 413.188-18.32 109.819-68.97 146.792-127.16 146.792-127.16l94.595 53.88c0 0 19.576 9.697 19.576-12.932v-338.38c0 0 0-30.174-22.838-19.395-19.211 9.063-226.959 127.198-292.425 164.467-35.95 16.035-4.365 29.062-4.365 29.062l91.284 52.174c0 0-52.069 65.21-128.279 99.745-81.576 42.502-157.948 47.542-251.498 12.224-61.003-23.025-132.823-81.988-184.554-169.083l-103.292 70.045zM904.057 248.302c0 0-85.897-132.55-221.816-203.671-135.917-71.123-303.366-50.652-413.187 18.315-109.826 68.972-146.791 127.165-146.791 127.165l-94.6-53.88c0 0-19.572-9.703-19.572 12.932v338.377c0 0 0 30.171 22.832 19.397 19.212-9.068 226.965-127.198 292.431-164.471 35.95-16.035 4.366-29.058 4.366-29.058l-91.285-52.176c0 0 52.071-65.207 128.28-99.745 81.573-42.499 157.942-47.541 251.497-12.222 60.999 23.026 132.82 81.983 184.547 169.083l103.3-70.047z" />
<glyph unicode="&#xe913;" glyph-name="catalog" d="M918.187 819.84h-608.214c-37.44 0-68.16-30.72-68.16-68.16s30.72-68.16 68.16-68.16h608.214c37.44 0 68.16 30.72 68.16 68.16s-30.72 68.16-68.16 68.16zM918.187 515.84h-608.214c-37.44 0-68.16-30.72-68.16-68.16s30.72-68.16 68.16-68.16h608.214c37.44 0 68.16 30.72 68.16 68.16s-30.72 68.16-68.16 68.16zM918.187 209.173h-608.214c-37.44 0-68.16-30.72-68.16-68.16s30.72-68.16 68.16-68.16h608.214c37.44 0 68.16 30.72 68.16 68.16s-30.72 68.16-68.16 68.16zM104.64 818.773c-37.013 0-67.2-30.293-67.2-67.2v-1.92c0-37.013 30.293-67.2 67.2-67.2 37.013 0 67.2 30.294 67.2 67.2v1.92c0 36.907-30.187 67.2-67.2 67.2zM104.64 514.773c-37.013 0-67.2-30.293-67.2-67.2v-1.92c0-37.013 30.293-67.2 67.2-67.2 37.013 0 67.2 30.294 67.2 67.2v1.92c0 36.907-30.187 67.2-67.2 67.2zM104.64 208.107c-37.013 0-67.2-30.294-67.2-67.2v-1.92c0-37.014 30.293-67.2 67.2-67.2 37.013 0 67.2 30.293 67.2 67.2v1.92c0 36.906-30.187 67.2-67.2 67.2z" />
<glyph unicode="&#xe914;" glyph-name="back" d="M671.968 48c-12.288 0-24.576 4.672-33.952 14.048l-351.968 351.968c-18.752 18.72-18.752 49.12 0 67.872l351.968 352c18.752 18.752 49.12 18.752 67.872 0 18.752-18.72 18.752-49.12 0-67.872l-318.016-318.048 318.016-318.016c18.752-18.752 18.752-49.12 0-67.872-9.344-9.408-21.632-14.080-33.92-14.080z" />
<glyph unicode="&#xe915;" glyph-name="more" d="M58.107 442.65c0-48.559 39.365-87.923 87.923-87.923s87.923 39.365 87.923 87.923v0c0 48.559-39.365 87.923-87.923 87.923s-87.923-39.365-87.923-87.923v0zM424.077 448c0-48.559 39.365-87.923 87.923-87.923s87.923 39.365 87.923 87.923v0c0 48.559-39.365 87.923-87.923 87.923s-87.923-39.365-87.923-87.923v0zM785.642 448c0-0.003 0-0.006 0-0.009 0-48.559 39.365-87.923 87.923-87.923s87.923 39.365 87.923 87.923c0 0.003 0 0.007 0 0.010v0c0 0.003 0 0.006 0 0.009 0 48.559-39.365 87.923-87.923 87.923s-87.923-39.365-87.923-87.923c0-0.003 0-0.007 0-0.010v0z" />
<glyph unicode="&#xe916;" glyph-name="right" d="M761.056 427.872c0.512 0.992 1.344 1.824 1.792 2.848 8.8 18.304 5.92 40.704-9.664 55.424l-353.248 334.112c-19.264 18.208-49.632 17.344-67.872-1.888-18.208-19.264-17.376-49.632 1.888-67.872l316.96-299.84-315.712-304.288c-19.072-18.4-19.648-48.768-1.248-67.872 9.408-9.792 21.984-14.688 34.56-14.688 12 0 24 4.48 33.312 13.44l350.048 337.376c0.672 0.672 0.928 1.6 1.6 2.304 0.512 0.48 1.056 0.832 1.568 1.344 2.72 2.848 4.16 6.336 6.016 9.6z" />
<glyph unicode="&#xe917;" glyph-name="terminal" d="M480 448v0.224c0 0.016 0 0.035 0 0.053 0 13.544-5.628 25.773-14.673 34.476l-0.015 0.015 0.016 0.016-288.128 287.872c-8.638 8.417-20.455 13.608-33.484 13.608-26.51 0-48-21.49-48-48 0-14.67 6.581-27.802 16.951-36.607l0.069-0.057 251.488-251.488-254.768-254.8c-8.129-8.581-13.128-20.199-13.128-32.984 0-26.51 21.49-48 48-48 12.785 0 24.403 4.999 33.006 13.149l-0.022-0.020 0.016-0.016 287.984 288.016c9.060 8.718 14.688 20.947 14.688 34.491 0 0.019 0 0.037 0 0.056v-0.003zM888 208h-368c-22.091 0-40-17.909-40-40v0-16c0-22.091 17.909-40 40-40v0h368c22.091 0 40 17.909 40 40v0 16c0 22.091-17.909 40-40 40v0z" />
<glyph unicode="&#xe918;" glyph-name="fork" d="M384 118.857q0 22.821-16.018 38.839t-38.839 16.018-38.839-16.018-16.018-38.839 16.018-38.839 38.839-16.018 38.839 16.018 16.018 38.839zM384 777.143q0 22.821-16.018 38.839t-38.839 16.018-38.839-16.018-16.018-38.839 16.018-38.839 38.839-16.018 38.839 16.018 16.018 38.839zM749.714 704q0 22.821-16.018 38.839t-38.839 16.018-38.839-16.018-16.018-38.839 16.018-38.839 38.839-16.018 38.839 16.018 16.018 38.839zM804.571 704q0-29.696-14.848-55.15t-40.009-39.717q-1.17-163.986-129.17-236.544-38.839-21.723-116.005-46.299-73.143-22.821-96.841-40.594t-23.698-57.125v-14.848q25.161-14.263 40.009-39.717t14.848-55.15q0-45.714-32.037-77.678t-77.678-32.037-77.678 32.037-32.037 77.678q0 29.696 14.848 55.15t40.009 39.717v468.553q-25.161 14.263-40.009 39.717t-14.848 55.15q0 45.714 32.037 77.678t77.678 32.037 77.678-32.037 32.037-77.678q0-29.696-14.848-55.15t-40.009-39.717v-284.014q30.866 14.848 87.991 32.549 31.451 9.728 50.030 16.823t40.302 17.701 33.719 22.601 23.113 29.111 16.018 39.717 4.827 52.297q-25.161 14.263-40.009 39.717t-14.848 55.15q0 45.714 32.037 77.678t77.678 32.037 77.678-32.037 32.037-77.678z" />
<glyph unicode="&#xe919;" glyph-name="star" d="M511.511 768.062c3.902 0 7.856-2.63 9.619-6.405l90.927-194.526 209.784-32.156c4.026-0.614 7.152-3.373 8.589-7.573 1.498-4.598 0.526-9.114-2.706-12.433l-151.841-156.222 35.18-216.422c0.708-4.343-1.252-9.267-4.669-11.773-1.888-1.294-3.837-1.924-5.952-1.924-1.658 0-3.391 0.452-4.885 1.275l-184.046 102.116-183.879-102.028c-1.804-0.979-3.708-1.185-4.994-1.185-2.23 0-4.393 0.618-5.947 1.698-3.517 2.547-5.465 7.362-4.743 11.746l0.023 0.141 35.136 216.355-151.855 156.299c-3.153 3.235-4.152 7.829-2.677 12.299 1.43 4.244 4.565 7.032 8.625 7.652l209.771 32.136 90.883 194.487c1.776 3.795 5.748 6.446 9.657 6.446zM511.511 832.018c-28.733 0-55.263-16.984-67.577-43.279l-76.435-163.568-175.983-26.959c-27.748-4.243-50.581-23.639-59.603-50.611-9.070-27.216-2.341-56.801 17.537-77.197l129.37-133.16-29.98-184.604c-4.694-28.5 7.419-57.661 30.884-74.332 12.605-8.909 27.721-13.462 42.912-13.462 12.335 0 24.72 3.003 35.839 9.115l153.034 84.914 153.085-84.937c11.004-6.084 23.385-9.268 35.847-9.268 15.359 0 30.17 4.722 42.882 13.662 23.396 16.624 35.51 45.784 30.862 74.285l-30.012 184.629 129.413 133.147c19.854 20.397 26.571 49.97 17.514 77.246-9.035 26.96-31.886 46.332-59.616 50.562l-175.961 26.97-76.456 163.568c-12.281 26.284-38.802 43.279-67.559 43.279v0z" />
<glyph unicode="&#xe91a;" glyph-name="add" d="M876.089 520.818h-291.271v291.271c0 40.268-32.549 72.818-72.818 72.818s-72.818-32.549-72.818-72.818v-291.271h-291.271c-40.268 0-72.818-32.549-72.818-72.818s32.549-72.818 72.818-72.818h291.271v-291.271c0-40.268 32.549-72.818 72.818-72.818s72.818 32.549 72.818 72.818v291.271h291.271c40.268 0 72.818 32.549 72.818 72.818s-32.549 72.818-72.818 72.818z" />
<glyph unicode="&#xe91b;" glyph-name="time" d="M512.119 747.993c22.965 0 41.584-18.616 41.584-41.582v-216.713h127.996c22.966 0 41.584-18.616 41.582-41.58 0-22.97-18.616-41.584-41.582-41.584h-169.894c-22.963 0-41.58 18.616-41.58 41.58 0 1.062 0.235 2.058 0.312 3.1v255.197c0.001 22.966 18.617 41.584 41.582 41.582zM933.729 334.97c-10.785-40.249-27.166-77.434-47.574-111.48l-0.462 0.276c-7.013-13.058-20.633-22.040-36.494-22.040-22.963 0-41.58 18.616-41.58 41.584 0 9.314 3.17 17.824 8.345 24.756 16.024 27.072 28.949 56.537 37.49 88.413 50.532 188.587-61.383 382.426-249.964 432.958-188.585 50.53-382.426-61.385-432.956-249.968-50.532-188.581 61.383-382.424 249.968-432.954 95.677-25.637 192.547-9.195 271.53 37.596 6.906 5.112 15.371 8.24 24.627 8.24 22.963 0 41.582-18.618 41.582-41.584 0-15.869-8.994-29.496-22.066-36.504l0.27-0.451c-97.916-58.723-218.455-79.452-337.452-47.567-232.912 62.407-371.134 301.818-308.725 534.731 62.409 232.915 301.816 371.135 534.731 308.724 232.915-62.407 371.139-301.812 308.728-534.729z" />
<glyph unicode="&#xe91c;" glyph-name="search" d="M937.542 22.459c-18.006-18.006-47.197-18.006-65.202 0l-65.2 65.2c-18.004 18.008-18.004 47.197 0 65.202 18.006 18.004 47.197 18.004 65.2 0l65.202-65.202c18.003-18.001 18.003-47.196 0-65.2zM187.735 218.061c-153.040 153.040-153.040 401.166 0 554.204s401.166 153.040 554.204 0 153.040-401.166 0-554.204c-153.039-153.042-401.165-153.042-554.204 0zM676.739 707.066c-117.032 117.029-306.775 117.029-423.804 0-117.030-117.032-117.030-306.773 0-423.804s306.773-117.030 423.804 0c117.030 117.031 117.030 306.772 0 423.804z" />
<glyph unicode="&#xe91d;" glyph-name="mail" d="M892.915 768.057h-762.419c-36.735 0-66.515-29.78-66.515-66.515v-570.537c0-36.735 29.78-66.515 66.515-66.515h762.419c36.735 0 66.515 29.78 66.515 66.515v570.537c0 36.736-29.779 66.515-66.515 66.515zM864.77 704.097c0.518 0 1.033-0.013 1.544-0.039l-354.435-309.004-354.445 309.013c0.401 0.015 0.802 0.031 1.206 0.031h706.129zM864.77 128.451h-706.129c-16.955 0-30.699 13.744-30.699 30.699v485.972l362.227-315.797c5.996-5.996 13.854-8.992 21.71-8.992 7.858-0.001 15.716 2.996 21.71 8.992l361.88 315.495v-485.668c0-16.955-13.744-30.7-30.699-30.7z" />
<glyph unicode="&#xe91e;" glyph-name="message" d="M512.408 884.18c-239.836 0-434.937-167.047-434.937-372.387 0-112.989 61.202-219.214 167.886-291.58 14.198-9.682 33.52-5.958 43.152 8.254 9.631 14.182 5.934 33.485-8.263 43.105-89.38 60.606-140.641 148.148-140.641 240.221 0 171.112 167.234 310.323 372.803 310.323 205.571 0 372.805-139.211 372.805-310.323s-167.233-310.325-372.804-310.325c-1.926 0-3.572-0.744-5.406-1.087-14.694 2.639-29.575-5.057-34.732-19.58-5.966-16.851-45.016-45.245-91.4-71.562 16.932 56.45 8.823 68.55 3.388 76.589-6.526 9.682-17.398 15.453-29.048 15.453-17.15 0-31.068-13.871-31.068-31.032 0-5.649 1.491-10.925 4.132-15.486-3.137-17.657-16.714-58.993-32.092-96.821-4.785-11.729-1.928-25.197 7.175-34.012 5.903-5.709 13.701-8.72 21.623-8.72 4.255 0 8.542 0.869 12.612 2.669 35.417 15.764 143.342 67.031 182.144 121.834 236.45 3.413 427.606 168.848 427.606 372.078 0.001 205.341-195.1 372.387-434.937 372.387zM385.968 418.696h189.571c17.148 0 31.066 13.903 31.066 31.033s-13.886 31.032-31.066 31.032h-189.571c-17.15 0-31.068-13.903-31.068-31.032 0-17.131 13.918-31.033 31.068-31.033zM385.968 542.825h248.534c17.18 0 31.068 13.903 31.068 31.033s-13.886 31.032-31.068 31.032h-248.534c-17.15 0-31.068-13.903-31.068-31.032 0-17.131 13.918-31.033 31.068-31.033z" />
<glyph unicode="&#xe91f;" glyph-name="tip" d="M923.905 621.043c-23.457 54.238-55.37 101.537-95.759 141.871-40.373 40.346-87.577 72.236-141.593 95.676-54.022 23.446-111.859 35.166-173.511 35.166-61.657 0-119.496-11.721-173.516-35.166-54.016-23.44-101.208-55.329-141.593-95.676-40.385-40.335-72.297-87.627-95.766-141.871-23.463-54.245-35.188-112.159-35.188-173.767 0-61.602 11.725-119.378 35.188-173.343 23.467-53.977 55.381-101.13 95.759-141.475 40.385-40.335 87.577-72.225 141.592-95.676 54.021-23.435 111.859-35.16 173.516-35.16 61.653 0 119.489 11.721 173.511 35.16 54.016 23.451 101.218 55.342 141.592 95.676 40.38 40.346 72.303 87.499 95.759 141.475 23.474 53.965 35.199 111.747 35.199 173.343 0.011 61.614-11.721 119.523-35.193 173.767v0zM513.042 159.557c-27.891 0-50.495 22.582-50.495 50.451 0 27.857 22.61 50.451 50.495 50.451 27.896 0 50.49-22.593 50.49-50.451 0-27.874-22.598-50.451-50.49-50.451v0zM563.532 369.291c0-27.863-22.598-50.462-50.49-50.462-27.891 0-50.495 22.598-50.495 50.462v316.084c0 27.874 22.61 50.462 50.495 50.462 27.896 0 50.49-22.588 50.49-50.462v-316.084z" />
<glyph unicode="&#xe920;" glyph-name="color" horiz-adv-x="1026" d="M811.985 631.448c-57.14 0-101.498-44.358-101.498-101.498s44.358-101.498 101.498-101.498 101.498 44.358 101.498 101.498c0.752 57.14-44.358 101.498-101.498 101.498zM811.985 467.548c-35.336 0-62.402 27.066-62.402 62.402s27.066 62.402 62.402 62.402c35.336 0 62.402-27.066 62.402-62.402s-26.314-62.402-62.402-62.402zM211.268 631.448c-57.14 0-101.498-44.358-101.498-101.498s44.358-101.498 101.498-101.498 101.498 44.358 101.498 101.498-44.358 101.498-101.498 101.498zM211.268 467.548c-35.336 0-62.402 27.066-62.402 62.402s27.066 62.402 62.402 62.402c35.336 0 62.402-27.066 62.402-62.402s-27.066-62.402-62.402-62.402zM750.334 748.734c0 57.14-44.358 101.498-101.498 101.498s-101.498-44.358-101.498-101.498 44.358-101.498 101.498-101.498c56.388 0 101.498 44.358 101.498 101.498zM648.084 686.332c-35.336 0-62.402 27.066-62.402 62.402s27.066 62.402 62.402 62.402 62.402-27.066 62.402-62.402c0-35.336-26.314-62.402-62.402-62.402zM375.168 850.232c-57.14 0-101.498-44.358-101.498-101.498s44.358-101.498 101.498-101.498 101.498 44.358 101.498 101.498-44.358 101.498-101.498 101.498zM375.168 686.332c-35.336 0-62.402 27.066-62.402 62.402s27.066 62.402 62.402 62.402c35.336 0 62.402-27.066 62.402-62.402s-27.066-62.402-62.402-62.402zM272.167 38.25l62.402-27.818c54.884-22.555 115.031-34.584 177.433-34.584 35.336 0 62.402 27.066 62.402 62.402 0 15.789-6.015 30.073-15.789 40.599-18.044 18.044-27.818 42.103-27.818 68.417 0 57.14 44.358 101.498 101.498 101.498h98.49c139.841 0 253.369 113.527 253.369 253.369 0 230.062-212.018 417.269-472.153 417.269-260.887 0.752-472.153-211.266-472.153-471.401 0-124.053 43.606-231.565 121.797-316.523 3.759-15.037-3.007-25.562-16.54-26.314-9.022-0.752-18.796 8.27-18.796 8.27l-4.511 3.759c-4.511 5.263-8.27 9.774-12.781 15.037-67.665 87.213-109.016 196.981-109.016 315.771 0 281.938 229.31 511.248 511.248 511.248s511.248-205.251 511.248-457.116c0-161.645-131.571-293.216-293.216-293.216h-96.987c-35.336 0-62.402-27.066-62.402-62.402 0-15.789 6.015-30.073 15.789-40.599 18.044-18.044 27.818-42.103 27.818-68.417 0-57.14-44.358-101.498-101.498-101.498-93.228 0-180.441 24.811-255.624 68.417-0.752 0.752-17.292 28.57 15.789 33.833z" />
<glyph unicode="&#xe921;" glyph-name="data" d="M1024 448c0 282.77-229.23 512-512 512s-512-229.23-512-512c0-282.77 229.23-512 512-512 113.686 0 221.787 37.18 310.292 104.705 9.774 7.457 11.653 21.426 4.195 31.201s-21.426 11.653-31.201 4.195c-80.813-61.656-179.444-95.579-283.287-95.579-258.181 0-467.478 209.297-467.478 467.478s209.297 467.478 467.478 467.478c258.181 0 467.478-209.297 467.478-467.478 0-87.047-23.808-170.541-68.16-243.201-6.406-10.494-3.091-24.193 7.403-30.599s24.193-3.091 30.599 7.403c48.587 79.597 74.68 171.107 74.68 266.398zM368.902 484.424l-30.201-2.61 242.696-189.425 258.925 332.113c7.559 9.696 5.827 23.684-3.869 31.243s-23.684 5.827-31.243-3.869l-245.23-314.547 31.253 3.861-241.451 188.454-172.934-191.064c-8.25-9.115-7.549-23.192 1.566-31.443s23.192-7.549 31.443 1.566l159.047 175.721z" />
<glyph unicode="&#xe922;" glyph-name="process" horiz-adv-x="1028" d="M965.427 418.164c-10.388 202.231-154.423 372.367-349.977 417.386-13.491 3.106-26.945-5.313-30.051-18.804s5.313-26.945 18.804-30.051c173.819-40.016 301.923-191.333 311.157-371.103 0.71-13.826 12.494-24.458 26.32-23.748s24.458 12.494 23.748 26.32v0zM386.693 829.048c-191.496-55.824-325.634-231.996-325.634-434.456 0-44.105 6.318-87.392 18.627-128.886 3.937-13.272 17.888-20.84 31.16-16.903s20.84 17.888 16.903 31.16c-10.94 36.878-16.557 75.363-16.557 114.628 0 180.028 119.289 336.698 289.531 386.326 13.291 3.874 20.924 17.79 17.050 31.080s-17.79 20.924-31.080 17.050v0zM196.357 71.892c84.056-82.629 196.931-129.786 317.188-129.786 129.776 0 250.759 54.963 336.012 149.431 9.275 10.278 8.462 26.128-1.815 35.403s-26.128 8.462-35.403-1.815c-75.844-84.042-183.357-132.886-298.794-132.886-106.976 0-207.271 41.902-282.044 115.405-9.873 9.705-25.743 9.569-35.448-0.303s-9.569-25.743 0.303-35.448v0zM498.28 674.824c72.858 0 131.921 59.063 131.921 131.921s-59.063 131.921-131.921 131.921c-72.858 0-131.921-59.063-131.921-131.921s59.063-131.921 131.921-131.921v0zM498.28 724.957c-45.17 0-81.788 36.618-81.788 81.788s36.618 81.788 81.788 81.788c45.17 0 81.788-36.618 81.788-81.788s-36.618-81.788-81.788-81.788v0zM131.921 33.696c72.858 0 131.921 59.063 131.921 131.921s-59.063 131.921-131.921 131.921c-72.858 0-131.921-59.063-131.921-131.921s59.063-131.921 131.921-131.921v0zM131.921 83.829c-45.17 0-81.788 36.618-81.788 81.788s36.618 81.788 81.788 81.788c45.17 0 81.788-36.618 81.788-81.788s-36.618-81.788-81.788-81.788v0zM895.169 64.226c72.858 0 131.921 59.063 131.921 131.921s-59.063 131.921-131.921 131.921c-72.858 0-131.921-59.063-131.921-131.921s59.063-131.921 131.921-131.921v0zM895.169 114.359c-45.17 0-81.788 36.618-81.788 81.788s36.618 81.788 81.788 81.788c45.17 0 81.788-36.618 81.788-81.788s-36.618-81.788-81.788-81.788v0z" />
<glyph unicode="&#xe923;" glyph-name="warn" d="M849.12 31.296h-674.24c-45.216 0-81.536 17.728-99.68 48.64s-15.936 71.296 6.080 110.752l340.192 609.664c22.144 39.744 55.072 62.528 90.304 62.528s68.128-22.752 90.336-62.464l340.544-609.792c22.016-39.456 24.288-79.808 6.112-110.72-18.112-30.912-54.464-48.608-99.648-48.608zM511.808 798.88c-11.2 0-24.032-11.104-34.432-29.696l-340.192-609.728c-10.656-19.136-13.152-36.32-6.784-47.168 6.368-10.816 22.592-17.024 44.48-17.024h674.24c21.92 0 38.112 6.176 44.48 17.024 6.336 10.816 3.872 28-6.816 47.136l-340.544 609.76c-10.368 18.592-23.264 29.696-34.432 29.696zM512 320c-17.664 0-32 14.304-32 32v288c0 17.664 14.336 32 32 32s32-14.336 32-32v-288c0-17.696-14.336-32-32-32zM464 207.872c0-26.51 21.49-48 48-48s48 21.49 48 48v0c0 26.51-21.49 48-48 48s-48-21.49-48-48v0z" />
<glyph unicode="&#xe924;" glyph-name="image" d="M736 512c53 0 96 43 96 96s-43 96-96 96c-53 0-96-43-96-96s43-96 96-96zM904 832h-784c-31.2 0-56-25.4-56-56.6v-654.8c0-31.2 24.8-56.6 56-56.6h784c31.2 0 56 25.4 56 56.6v654.8c0 31.2-24.8 56.6-56 56.6zM697.8 436.6c-6 7-15.2 12.4-25.6 12.4-10.2 0-17.4-4.8-25.6-11.4l-37.4-31.6c-7.8-5.6-14-9.4-23-9.4-8.6 0-16.4 3.2-22 8.2-2 1.8-5.6 5.2-8.6 8.2l-107.6 116.4c-8 9.2-20 15-33.4 15s-25.8-6.6-33.6-15.6l-253-305.2v521c2 13.6 12.6 23.4 26.2 23.4h715.4c13.8 0 25-10.2 25.8-24l0.6-520.8-198.2 213.4z" />
<glyph unicode="&#xe925;" glyph-name="lines" d="M224 640h576c17.664 0 32 14.336 32 32s-14.336 32-32 32h-576c-17.664 0-32-14.336-32-32s14.336-32 32-32zM800 576h-576c-17.664 0-32-14.336-32-32s14.336-32 32-32h576c17.664 0 32 14.336 32 32s-14.336 32-32 32zM800 448h-576c-17.664 0-32-14.336-32-32s14.336-32 32-32h576c17.664 0 32 14.336 32 32s-14.336 32-32 32zM800 320h-576c-17.664 0-32-14.336-32-32s14.336-32 32-32h576c17.664 0 32 14.336 32 32s-14.336 32-32 32z" />
<glyph unicode="&#xe926;" glyph-name="draft" d="M832 0h-640c-70.692 0-128 57.308-128 128v0 320h64v384c0 35.346 28.654 64 64 64v0h640c35.346 0 64-28.654 64-64v0-384h64v-320c0-70.692-57.308-128-128-128v0zM832 832h-640v-384h192v-128h256v128h192v384zM896 384h-192v-64c0-35.346-28.654-64-64-64v0h-256c-35.346 0-64 28.654-64 64v0 64h-192v-256c0-35.346 28.654-64 64-64v0h640c35.346 0 64 28.654 64 64v0 256z" />
<glyph unicode="&#xe927;" glyph-name="save" d="M608 640c17.664 0 32 14.304 32 32v128c0 17.696-14.336 32-32 32s-32-14.304-32-32v-128c0-17.696 14.336-32 32-32v0zM960 64c0-35.328-28.672-64-64-64h-768c-35.328 0-64 28.672-64 64v768c0 35.328 28.672 64 64 64h64v-320c0-35.328 28.672-64 64-64h512c35.328 0 64 28.672 64 64v320h64c35.328 0 64-28.672 64-64v-768zM256 896h512v-288c0-17.696-14.336-32-32-32h-448c-17.664 0-32 14.304-32 32v288zM896 960h-768c-70.688 0-128-57.312-128-128v-768c0-70.688 57.312-128 128-128h768c70.688 0 128 57.312 128 128v768c0 70.688-57.312 128-128 128v0z" />
<glyph unicode="&#xe928;" glyph-name="app" d="M147.050 910.049h201.49c41.689 0 75.392-33.505 75.392-75.108v-224.419c0-41.499-33.764-75.108-75.392-75.108h-201.49c-41.689 0-75.392 33.505-75.392 75.108v224.419c0 41.499 33.764 75.108 75.392 75.108zM21.333 610.522c0-69.173 56.216-125.059 125.716-125.059h201.49c69.453 0 125.716 56.004 125.716 125.059v224.419c0 69.173-56.216 125.059-125.716 125.059h-201.49c-69.453 0-125.716-56.004-125.716-125.059v-224.419zM675.46 910.049h201.49c41.689 0 75.392-33.505 75.392-75.108v-224.419c0-41.499-33.764-75.108-75.392-75.108h-201.49c-41.689 0-75.392 33.505-75.392 75.108v224.419c0 41.499 33.764 75.108 75.392 75.108zM549.744 610.522c0-69.173 56.216-125.059 125.716-125.059h201.49c69.453 0 125.716 56.004 125.716 125.059v224.419c0 69.173-56.216 125.059-125.716 125.059h-201.49c-69.453 0-125.716-56.004-125.716-125.059v-224.419zM147.050 360.585h201.49c41.689 0 75.392-33.505 75.392-75.108v-224.419c0-41.499-33.764-75.108-75.392-75.108h-201.49c-41.689 0-75.392 33.505-75.392 75.108v224.419c0 41.499 33.764 75.108 75.392 75.108zM21.333 61.059c0-69.173 56.216-125.059 125.716-125.059h201.49c69.453 0 125.716 56.004 125.716 125.059v224.419c0 69.173-56.216 125.059-125.716 125.059h-201.49c-69.453 0-125.716-56.004-125.716-125.059v-224.419zM874.687-14.049h-199.291c-41.65 0-75.327 33.501-75.327 75.108v224.419c0 41.499 33.764 75.108 75.392 75.108h201.49c41.692 0 75.392-33.469 75.392-75.006v-224.645c0-13.794 11.266-24.976 25.162-24.976s25.162 11.182 25.162 24.976v224.645c0 69.117-56.224 124.957-125.716 124.957h-201.49c-69.453 0-125.716-56.004-125.716-125.059v-224.419c0-69.169 56.184-125.059 125.652-125.059h200.976c14.475 0 25.741 11.182 25.741 24.976s-11.266 24.976-25.162 24.976h-2.264z" />
<glyph unicode="&#xe929;" glyph-name="briefcase" d="M365.714 813.714h292.571v73.143h-292.571v-73.143zM1024 448v-274.286q0-37.742-26.843-64.585t-64.585-26.843h-841.143q-37.742 0-64.585 26.843t-26.843 64.585v274.286h384v-91.429q0-14.848 10.825-25.746t25.746-10.825h182.857q14.848 0 25.746 10.825t10.825 25.746v91.429h384zM585.143 448v-73.143h-146.286v73.143h146.286zM1024 722.286v-219.429h-1024v219.429q0 37.742 26.843 64.585t64.585 26.843h201.143v91.429q0 22.821 16.018 38.839t38.839 16.018h329.143q22.821 0 38.839-16.018t16.018-38.839v-91.429h201.143q37.742 0 64.585-26.843t26.843-64.585z" />
<glyph unicode="&#xe92a;" glyph-name="tags" horiz-adv-x="1086" d="M256 704q0 30.286-21.429 51.714t-51.714 21.429-51.714-21.429-21.429-51.714 21.429-51.714 51.714-21.429 51.714 21.429 21.429 51.714zM865.714 374.857q0-30.286-21.143-51.429l-280.571-281.143q-22.286-21.143-52-21.143-30.286 0-51.429 21.143l-408.571 409.143q-21.714 21.143-36.857 57.714t-15.143 66.857v237.714q0 29.714 21.714 51.429t51.429 21.714h237.714q30.286 0 66.857-15.143t58.286-36.857l408.571-408q21.143-22.286 21.143-52zM1085.143 374.857q0-30.286-21.143-51.429l-280.571-281.143q-22.286-21.143-52-21.143-20.571 0-33.714 8t-30.286 25.714l268.571 268.571q21.143 21.143 21.143 51.429 0 29.714-21.143 52l-408.571 408q-21.714 21.714-58.286 36.857t-66.857 15.143h128q30.286 0 66.857-15.143t58.286-36.857l408.571-408q21.143-22.286 21.143-52z" />
<glyph unicode="&#xe92b;" glyph-name="user" d="M512.22 49.768c-75.643 0-151.284-0.084-226.932 0.041-26.122 0.043-51.259 4.79-74.232 17.962-34.351 19.69-53.883 49.574-59.837 88.43-4.25 27.73-2.004 50.134 0.027 77.862 2.81 38.308 9.378 61.021 21.676 97.51 10.069 29.88 24.22 57.638 45.645 81.161 25.857 28.393 58.794 40.928 95.789 43.356 11.38 1.037 20.725-1.925 29.96-7.991 16.508-10.846 32.854-22.069 50.128-31.585 36.811-20.271 76.901-30.225 119.28-29.745 45.232 0.509 88.079 12.834 126.594 36.12 12.928 7.819 25.765 15.863 38.112 24.562 11.29 7.956 23.018 10.593 36.805 8.928 33.195-2.837 59.031-13.489 82.689-35.42 18.68-17.318 31.696-38.691 42.405-61.594 14.546-31.099 22.196-49.153 27.724-82.792 5.751-35.020 7.866-64.907 6.938-100.334-0.832-31.802-9.832-60.948-31.819-84.913-19.134-20.846-43.043-33.353-70.753-38.216-11.116-1.945-22.509-3.152-33.78-3.189-75.476-0.286-150.949-0.153-226.42-0.153zM314.137 644.581c-1.945 105.521 88.539 197.78 198.32 197.707 108.836-0.072 198.76-91.554 198.173-199.302-0.587-106.629-89.67-197.408-198.465-197.396-109.084 0.012-200.39 91.862-198.028 198.991z" />
<glyph unicode="&#xe92c;" glyph-name="footnote" horiz-adv-x="1375" d="M978.619-64h-659.666c-60.698 0-109.944 49.246-109.944 109.944v732.819c0 60.698 49.246 109.944 109.944 109.944h512.931c20.328 0 36.648-16.32 36.648-36.648s-16.32-36.648-36.648-36.648h-512.931c-20.042 0-36.648-16.606-36.648-36.648v-732.819c0-20.328 16.606-36.648 36.648-36.648h659.523c20.328 0 36.648 16.32 36.648 36.648v586.513c0 20.328 16.32 36.648 36.648 36.648s36.648-16.32 36.648-36.648v-586.227c0.143-60.698-49.246-110.231-109.801-110.231v0zM763.312 522.513c-9.448 0-18.754 3.579-26.055 10.88-14.316 14.316-14.316 37.364 0 51.823l364.334 364.048c14.316 14.316 37.364 14.316 51.823 0 14.316-14.316 14.316-37.364 0-51.823l-364.191-364.334c-7.158-7.015-16.606-10.594-25.911-10.594v0zM612.138 522.513h-219.889c-20.328 0-36.648 16.32-36.648 36.648s16.32 36.648 36.648 36.648h219.889c20.328 0 36.648-16.32 36.648-36.648-0.143-20.328-16.463-36.648-36.648-36.648v0zM832.17 302.624h-439.921c-20.328 0-36.648 16.32-36.648 36.648s16.32 36.648 36.648 36.648h439.634c20.328 0 36.648-16.32 36.648-36.648s-16.32-36.648-36.362-36.648v0z" />
<glyph unicode="&#xe92d;" glyph-name="notice" d="M42.48-18.74c-22.342 24.687-26.48 69.693-26.48 288 0 311.758 5.329 322.74 156.601 322.74 90.075 0 94.767 2.202 172 80.727 72.248 73.457 79.399 87.43 79.399 155.15 0 64.497 5.868 77.737 44 99.273 39.78 22.467 48.22 22.467 88 0 38.132-21.536 44-34.775 44-99.273 0-67.72 7.151-81.693 79.399-155.15 77.233-78.525 81.925-80.727 172-80.727 151.49 0 156.601-10.625 156.601-325.52 0-233.037-3.187-264.404-29.26-288-25.734-23.289-82.306-26.48-469.52-26.48-406.197 0-442.309 2.264-466.74 29.26zM950.857 9.143c20.462 20.462 25.143 66.832 25.143 249.052 0 123.749-7.409 237.753-16.563 254.857-15.746 29.421-37.82 30.948-447.437 30.948s-431.691-1.527-447.437-30.948c-9.154-17.104-16.563-131.109-16.563-254.857 0-182.22 4.681-228.59 25.143-249.052 21.561-21.561 84.087-25.143 438.857-25.143s417.296 3.582 438.857 25.143zM623.047 671.274c-47.876 43.601-97.847 79.274-111.047 79.274s-63.171-35.673-111.047-79.274l-87.047-79.274h396.189l-87.047 79.274zM560.547 817.023c13.118 24.512 12.759 38.945-1.396 56-44.881 54.079-128.442 5.181-95.699-56 9.72-18.163 31.567-33.023 48.547-33.023s38.827 14.86 48.547 33.023z" />
<glyph unicode="&#xe92e;" glyph-name="note" d="M768 832h-512c-35.346 0-64-28.654-64-64v-640c0-35.347 28.654-64 64-64h512c35.347 0 64 28.653 64 64v640c0 35.346-28.653 64-64 64zM768 160c0-17.673-14.327-32-32-32h-448c-17.674 0-32 14.327-32 32v576c0 17.673 14.326 32 32 32h448c17.673 0 32-14.327 32-32v-576zM672 608c0-17.673-14.327-32-32-32h-256c-17.673 0-32 14.327-32 32v0c0 17.673 14.327 32 32 32h256c17.673 0 32-14.327 32-32v0zM672 448c0-17.674-14.327-32-32-32h-256c-17.673 0-32 14.326-32 32v0c0 17.673 14.327 32 32 32h256c17.673 0 32-14.327 32-32v0zM672 288c0-17.674-14.327-32-32-32h-256c-17.673 0-32 14.326-32 32v0c0 17.674 14.327 32 32 32h256c17.673 0 32-14.326 32-32v0z" />
<glyph unicode="&#xe92f;" glyph-name="article" d="M1024 832h-1024v128h1024zM640 576h-640v128h640zM1024 192h-1024v128h1024zM768-64h-768v128h768zM1024 0c0-35.36-28.704-64-63.936-64-35.456 0-64.064 28.64-64.064 64s28.608 64 64.064 64c35.232 0 63.936-28.64 63.936-64z" />
<glyph unicode="&#xe948;" glyph-name="location" d="M512 960c-176.732 0-320-143.268-320-320 0-320 320-704 320-704s320 384 320 704c0 176.732-143.27 320-320 320zM512 444c-108.248 0-196 87.752-196 196s87.752 196 196 196 196-87.752 196-196-87.752-196-196-196zM388 640c0 68.483 55.517 124 124 124s124-55.517 124-124c0-68.483-55.517-124-124-124s-124 55.517-124 124z" />
</font>
</defs>
</svg>
